<?xml version="1.0" encoding="UTF-8" standalone="no"?>
<!DOCTYPE svg PUBLIC "-//W3C//DTD SVG 1.1//EN" "http://www.w3.org/Graphics/SVG/1.1/DTD/svg11.dtd">
<svg version="1.1" xmlns="http://www.w3.org/2000/svg" xmlns:xlink="http://www.w3.org/1999/xlink" preserveAspectRatio="xMidYMid meet" viewBox="0 0 133 41.54" width="133" height="41.54"><defs><path d="M13.71 21C11.2 21 9.14 23.05 9.14 25.57C9.14 28.09 11.2 30.14 13.71 30.14C16.23 30.14 18.29 28.09 18.29 25.57C18.29 23.05 16.23 21 13.71 21ZM13.71 32.61C9.82 32.61 6.68 29.46 6.68 25.57C6.68 21.68 9.82 18.54 13.71 18.54C17.61 18.54 20.75 21.68 20.75 25.57C20.75 29.46 17.61 32.61 13.71 32.61ZM21.04 19.89C20.13 19.89 19.39 19.16 19.39 18.25C19.39 17.34 20.13 16.61 21.04 16.61C21.95 16.61 22.68 17.34 22.68 18.25C22.68 19.16 21.95 19.89 21.04 19.89ZM5.63 14.87C5 15.12 4.54 15.43 4.05 15.91C3.57 16.39 3.27 16.86 3.02 17.48C2.3 19.29 2.46 23.57 2.46 25.57C2.46 27.57 2.3 31.86 3.02 33.66C3.27 34.29 3.57 34.75 4.05 35.23C4.54 35.71 5 36.02 5.63 36.27C7.43 36.98 11.71 36.82 13.71 36.82C15.71 36.82 20 36.98 21.8 36.27C22.43 36.02 22.89 35.71 23.38 35.23C23.86 34.75 24.16 34.29 24.41 33.66C25.13 31.86 24.96 27.57 24.96 25.57C24.96 23.57 25.13 19.29 24.41 17.48C24.16 16.86 23.86 16.39 23.38 15.91C22.89 15.43 22.43 15.12 21.8 14.87C20 14.16 15.71 14.32 13.71 14.32C11.71 14.32 7.43 14.16 5.63 14.87ZM27.34 31.23C27.23 33.43 26.73 35.37 25.13 36.98C23.52 38.59 21.57 39.09 19.38 39.2C17.48 39.3 15.61 39.29 13.71 39.29C11.82 39.29 9.95 39.3 8.05 39.2C5.86 39.09 3.91 38.59 2.3 36.98C0.7 35.37 0.2 33.43 0.09 31.23C-0.02 29.34 0 27.46 0 25.57C0 23.68 -0.02 21.8 0.09 19.91C0.2 17.71 0.7 15.77 2.3 14.16C3.91 12.55 5.86 12.05 8.05 11.95C9.95 11.84 11.82 11.86 13.71 11.86C15.61 11.86 17.48 11.84 19.38 11.95C21.57 12.05 23.52 12.55 25.13 14.16C26.73 15.77 27.23 17.71 27.34 19.91C27.45 21.8 27.43 23.68 27.43 25.57C27.43 27.46 27.45 29.34 27.34 31.23Z" id="c2qRNmaAKq"></path><path d="M86.35 9.9C84.15 10.91 83.55 11.36 83.21 12.3C83.19 12.37 83.07 12.74 82.84 13.42C80.51 13.3 79.21 13.24 78.95 13.23C76.82 13.12 75.03 12.97 74.95 12.89C74.84 12.78 75.33 12.15 76 11.47C77.38 10.05 77.27 9.38 75.66 9.38C74.88 9.38 74.24 9.79 73.27 10.95C72.52 11.81 71.93 12.63 71.93 12.74C71.93 12.89 70.28 13.12 68.26 13.23C66.25 13.34 64.15 13.64 63.59 13.83C62.54 14.24 61.46 16.15 61.46 17.49C61.5 18.13 61.5 18.13 61.87 17.53C62.51 16.41 70.77 14.43 70.32 15.47C70.21 15.73 69.2 18.24 68.04 21.08C65.83 26.65 65.01 28.14 63.55 29.53C63.49 29.58 63.18 29.87 62.62 30.39C62.28 29.56 62.1 29.1 62.06 29C59.85 23.73 59.63 19.96 61.57 20.71C61.98 20.85 62.1 21.3 61.98 22.35C61.87 23.13 61.95 23.99 62.17 24.29C62.62 25 63.7 24.52 63.7 23.66C63.7 23.25 64.26 21.79 64.97 20.37C65.68 18.99 66.17 17.68 66.1 17.53C65.65 16.78 64.08 17.27 63.44 18.35C62.77 19.55 62.4 19.73 62.02 19.1C61.65 18.46 59.37 18.69 58.77 19.36C58.43 19.73 57.98 20.71 57.72 21.53C56.38 25.86 52.98 33.56 52.64 33.19C52.53 33.08 53.05 30.5 53.76 27.43C55.55 19.99 55.48 18.72 53.42 18.72C52.23 18.72 51.67 19.55 49.28 24.97C48.08 27.66 47.07 29.86 47.03 29.83C47 29.79 47.29 28.22 47.74 26.31C48.38 23.47 48.42 22.8 48.04 22.31C46.96 21 46.29 21.6 44.83 25.19C42.96 29.75 41.16 33.26 40.19 34.42C40.14 34.48 39.86 34.8 39.37 35.36C39.5 34.06 39.58 33.33 39.59 33.19C40.12 28.33 42.14 21.68 43.29 20.85C43.82 20.48 42.47 19.4 41.65 19.55C40.16 19.85 37.5 28.48 37.43 33.34C37.35 35.69 37.46 36.37 38.06 37C38.47 37.41 39.07 37.79 39.41 37.79C40.16 37.79 41.61 36.25 42.92 34.05C42.99 33.94 43.32 33.38 43.93 32.37C43.77 33.53 43.69 34.18 43.67 34.31C43.33 37.15 43.67 38.23 44.9 38.09C45.76 37.97 46.06 37.52 47.33 34.24C49.95 27.43 52.23 22.05 52.38 22.2C52.45 22.27 52 24.63 51.37 27.4C50.77 30.2 50.25 32.96 50.25 33.6C50.25 35.81 52.38 36.67 53.91 35.06C54.7 34.24 56.49 30.09 57.39 27.02C57.65 26.16 57.95 25.45 58.06 25.45C58.32 25.45 60.86 32.14 60.68 32.33C60.6 32.4 59.59 33.04 58.47 33.79C55.74 35.51 55.03 36.37 55.18 37.67C55.26 38.46 55.63 38.91 56.68 39.39C58.43 40.25 60.45 39.8 62.02 38.16C62.96 37.19 63.14 36.67 63.25 34.65C63.4 32.67 63.59 32.07 64.38 31.36C64.44 31.3 64.75 31.01 65.31 30.5C65.18 31.87 65.1 32.63 65.09 32.78C64.79 35.66 65.31 37.67 66.51 38.23C67.81 38.83 68.9 37.97 70.43 35.13C70.52 34.97 70.94 34.18 71.7 32.74C71.9 33.53 72.02 33.96 72.04 34.05C72.49 35.81 73.31 36.67 74.58 36.67C75.55 36.67 75.78 36.37 77.12 33.6C78.02 31.77 78.62 30.83 78.65 31.32C78.65 32.29 80 33.34 80.78 33.04C81.08 32.93 82.06 31.39 82.92 29.6C84.04 27.28 84.78 26.24 85.68 25.71C86.99 24.97 93.57 23.02 93.83 23.32C93.94 23.43 93.57 25.08 93.04 26.98C91.81 31.36 90.8 38.05 91.14 39.8C91.29 40.55 91.81 41.45 92.37 41.9C94.05 43.21 94.24 42.94 94.05 39.28C93.87 35.66 94.5 31.25 95.96 26.01C96.02 25.81 96.3 24.82 96.82 23.02C97.85 22.96 98.42 22.92 98.54 22.91C101.57 22.72 101.9 21 98.95 20.97C98.28 20.97 97.72 20.85 97.72 20.67C97.72 20.07 99.36 16.03 101.19 12.26C101.32 11.99 101.96 10.63 103.1 8.18C105.79 8.25 107.29 8.29 107.58 8.3C110.87 8.41 112.11 8.3 112.22 7.96C112.67 6.58 105.79 5.72 99.85 6.39C95.51 6.88 89.42 8.48 86.35 9.9ZM99.17 10.61C98.73 11.47 97.53 14.2 96.56 16.67C96.44 16.97 95.84 18.46 94.76 21.15C92.57 21.62 91.35 21.89 91.1 21.94C89.08 22.35 86.99 22.84 86.47 22.95C85.68 23.13 85.49 23.06 85.53 22.57C85.68 20.85 84.6 22.16 82.88 25.9C81.79 28.18 80.82 29.97 80.71 29.86C80.41 29.56 81.64 23.96 82.28 22.72C82.77 21.71 82.77 21.56 82.24 21C81.16 19.96 80.45 21 77.68 27.51C76.26 30.98 74.88 33.86 74.62 33.97C73.91 34.2 74.06 29.71 74.88 26.46C76.15 21.6 77.68 19.1 79.48 19.1C80.67 19.1 80.86 18.54 79.81 17.98C77.16 16.59 74.92 18.87 72.64 25.27C71.44 28.67 69.12 33.6 68.04 34.98C67.48 35.69 67.48 35.66 67.44 34.05C67.44 30.72 70.24 21.23 72.67 16.52C72.72 16.42 72.97 15.91 73.42 14.99C76.34 14.99 77.96 14.99 78.28 14.99C81.64 14.99 83.14 15.14 83.14 15.4C83.14 15.7 83.29 15.7 83.63 15.43C83.85 15.21 84.56 14.99 85.16 14.91C86.32 14.8 86.99 13.87 85.94 13.87C84.22 13.87 87.66 11.88 91.77 10.54C93.16 10.09 95.4 9.49 96.82 9.23C100 8.59 99.96 8.59 99.96 8.82C99.96 8.93 99.59 9.75 99.17 10.61ZM57.61 37.71C57.53 37.7 57.13 37.67 56.41 37.6C57.65 36.77 58.33 36.31 58.47 36.22C59.59 35.47 60.64 34.83 60.79 34.83C60.94 34.8 60.86 35.32 60.64 35.92C60.19 37.3 59.22 37.86 57.61 37.71Z" id="f33p6ibNZx"></path><path d="M98.84 33.82C98.84 38.2 101.19 39.39 103.44 36.1C103.49 36.02 103.78 35.6 104.3 34.83C104.7 35.71 104.92 36.19 104.97 36.29C106.05 38.76 108.48 38.83 110.16 36.4C111.58 34.35 113.04 29.6 113.3 26.24C113.49 23.58 113.45 23.25 112.71 22.5C111.66 21.45 110.61 21.42 111.17 22.42C112.29 24.55 110.16 33.53 107.92 35.99C107.06 36.96 106.69 36.25 106.69 33.64C106.69 29.53 109.01 22.87 110.87 21.53C111.62 21.04 111.66 20.89 111.17 20.59C108.93 19.14 107.25 21.3 105.08 28.44C104.15 31.43 102.43 34.76 101.49 35.32C100.93 35.69 100.97 33.6 101.6 30.16C102.91 23.43 106.91 14.01 109.68 11.25C111.06 9.87 111.1 9.75 110.43 9.38C109.23 8.74 108.67 8.97 107.25 10.58C103.62 14.8 98.84 28.03 98.84 33.82Z" id="a3iI8MIYNk"></path><path d="M42.32 17.86C42.47 18.05 42.92 18.43 43.37 18.65C44.04 19.02 44.15 18.91 44.57 17.45C44.79 16.56 45.43 15.32 45.95 14.69C46.88 13.57 46.88 13.53 46.17 13.15C45.05 12.52 44.34 12.67 43.74 13.6C42.88 14.84 42.06 17.45 42.32 17.86Z" id="a1403ZTGxe"></path><path d="M127.58 25.27C124.59 33.38 123.81 34.65 123.28 31.96C122.98 30.35 123.32 27.32 124.14 23.81C124.74 21.34 124.74 21.23 124.07 20.74C122.27 19.43 121.75 20.29 119.62 28.07C117.64 35.32 117.04 37 116.56 36.25C115.62 34.8 116.71 25.6 118.16 22.54C118.76 21.3 118.76 21.23 118.09 20.74C117 19.92 116.41 20.11 115.85 21.45C114.91 23.7 113.79 30.16 113.79 33.19C113.83 37.94 115.55 40.55 117.83 39.32C118.61 38.91 119.88 35.95 120.33 33.53C120.35 33.43 120.45 32.96 120.63 32.11C121.01 33 121.22 33.5 121.27 33.6C122.16 35.58 123.58 36.55 124.82 35.99C126.24 35.32 126.27 35.21 132.33 17.12C132.52 16.67 132.37 16.48 131.84 16.48C131.32 16.48 130.87 17 130.31 18.24C129.86 19.25 128.63 22.39 127.58 25.27Z" id="a1Fg4MDOkU"></path></defs><g><g><g><use xlink:href="#c2qRNmaAKq" opacity="1" fill="#000000" fill-opacity="1"></use><g><use xlink:href="#c2qRNmaAKq" opacity="1" fill-opacity="0" stroke="#000000" stroke-width="1" stroke-opacity="0"></use></g></g><g><use xlink:href="#f33p6ibNZx" opacity="1" fill="#000000" fill-opacity="1"></use><g><use xlink:href="#f33p6ibNZx" opacity="1" fill-opacity="0" stroke="#000000" stroke-width="1" stroke-opacity="0"></use></g></g><g><use xlink:href="#a3iI8MIYNk" opacity="1" fill="#000000" fill-opacity="1"></use><g><use xlink:href="#a3iI8MIYNk" opacity="1" fill-opacity="0" stroke="#000000" stroke-width="1" stroke-opacity="0"></use></g></g><g><use xlink:href="#a1403ZTGxe" opacity="1" fill="#000000" fill-opacity="1"></use><g><use xlink:href="#a1403ZTGxe" opacity="1" fill-opacity="0" stroke="#000000" stroke-width="1" stroke-opacity="0"></use></g></g><g><use xlink:href="#a1Fg4MDOkU" opacity="1" fill="#000000" fill-opacity="1"></use><g><use xlink:href="#a1Fg4MDOkU" opacity="1" fill-opacity="0" stroke="#000000" stroke-width="1" stroke-opacity="0"></use></g></g></g></g></svg>